<svg width="28" height="20" viewBox="0 0 28 20" fill="none" xmlns="http://www.w3.org/2000/svg">
<path d="M7.2173 0.199999C5.51486 0.199399 3.8057 0.836587 2.5 2.09353C-0.11316 4.61083 -0.113086 8.74394 2.5 11.2612C2.50313 11.2612 2.50625 11.2612 2.50938 11.2612L3.12835 11.8612H3.13773L11.3063 19.7446C11.4744 19.9084 11.6999 20 11.9346 20C12.1694 20 12.3948 19.9084 12.563 19.7446L18.4713 14.0359C19.3711 14.5747 20.4173 14.8983 21.538 14.8983C24.8423 14.8983 27.5402 12.2017 27.5402 8.89899C27.5402 5.78025 25.1322 3.20523 22.082 2.92781C21.8737 2.64008 21.6418 2.35616 21.3692 2.09353C18.7575 -0.422393 14.5579 -0.41888 11.944 2.09353C11.9422 2.09533 11.9364 2.09173 11.9346 2.09353C11.9328 2.09173 11.927 2.09533 11.9252 2.09353C10.6198 0.838827 8.91618 0.20065 7.2173 0.199999ZM7.2173 1.9998C8.47362 2.0004 9.71785 2.46231 10.6779 3.38713C10.681 3.38715 10.6842 3.38715 10.6873 3.38713L11.3156 3.98706C11.4829 4.14527 11.7044 4.23343 11.9346 4.23343C12.1649 4.23343 12.3864 4.14527 12.5536 3.98706L13.1819 3.38713C13.185 3.38715 13.1882 3.38715 13.1913 3.38713C15.0237 1.622 17.9125 1.54657 19.8405 3.15278C17.3578 3.88831 15.5359 6.18542 15.5359 8.89899C15.5359 10.4317 16.1206 11.8298 17.0739 12.8923L11.9346 17.8417L4.38505 10.5676C4.38192 10.5675 4.37879 10.5675 4.37567 10.5676L3.7567 9.96763C1.83762 8.11892 1.83757 5.23586 3.7567 3.38713C4.71715 2.46255 5.9622 1.99931 7.2173 1.9998ZM21.538 4.69949C23.8691 4.69949 25.7395 6.569 25.7395 8.89899C25.7395 11.229 23.8691 13.0985 21.538 13.0985C19.2069 13.0985 17.3365 11.229 17.3365 8.89899C17.3365 6.569 19.2069 4.69949 21.538 4.69949ZM19.4373 7.9991C19.406 7.99747 19.3747 7.99747 19.3435 7.9991C19.2252 8.00516 19.1092 8.03446 19.0023 8.08533C18.8953 8.1362 18.7994 8.20764 18.7201 8.29557C18.6408 8.3835 18.5795 8.48619 18.5399 8.59778C18.5003 8.70937 18.4831 8.82768 18.4893 8.94592C18.4954 9.06417 18.5249 9.18003 18.5758 9.2869C18.6268 9.39378 18.6984 9.48956 18.7864 9.56877C18.8745 9.64799 18.9773 9.7091 19.0889 9.74858C19.2006 9.78807 19.319 9.80516 19.4373 9.7989H20.6377C22.4383 9.7989 20.6377 9.7989 22.4383 9.7989H23.6388C23.7581 9.80056 23.8765 9.77852 23.9872 9.73405C24.0979 9.68957 24.1986 9.62354 24.2836 9.53981C24.3685 9.45608 24.4359 9.35631 24.482 9.24631C24.528 9.1363 24.5517 9.01825 24.5517 8.89901C24.5517 8.77977 24.528 8.6617 24.482 8.5517C24.4359 8.44169 24.3685 8.34193 24.2836 8.2582C24.1986 8.17447 24.0979 8.10846 23.9872 8.06398C23.8765 8.0195 23.7581 7.99744 23.6388 7.9991H22.4383C19.4373 7.9991 20.7164 7.9991 19.4373 7.9991Z" fill="black"/>
</svg>