<svg height='30' width='30'  fill="#000000" xmlns="http://www.w3.org/2000/svg" version="1.1" x="0px" y="0px" viewBox="0 0 100 100"><g transform="translate(0,-952.36218)"><path style="text-indent:0;text-transform:none;direction:ltr;block-progression:tb;baseline-shift:baseline;color:#000000;enable-background:accumulate;" d="m 27.289168,969.36975 c -5.674816,-0.002 -11.372008,2.12196 -15.724344,6.31177 -8.7105332,8.39101 -8.7102877,22.16805 0,30.55898 a 3.0013677,2.9999561 0 0 0 0.03126,0 l 2.063234,1.9998 0.03126,0 27.228436,26.2782 a 3.0013677,2.9999561 0 0 0 4.18899,0 l 19.694506,-19.029 c 2.999448,1.7959 6.486523,2.8746 10.222387,2.8746 11.014101,0 20.007117,-8.9888 20.007117,-19.99768 0,-10.39581 -8.026556,-18.97926 -18.193972,-19.90397 -0.694289,-0.9591 -1.46712,-1.90551 -2.375845,-2.78093 -8.70578,-8.38641 -22.704352,-8.3747 -31.417427,0 -0.006,0.006 -0.02525,-0.006 -0.03126,0 -0.006,-0.006 -0.02525,0.006 -0.03126,0 -4.351297,-4.18234 -10.030158,-6.3096 -15.693082,-6.31177 z m 0,5.99931 c 4.187733,0.002 8.335157,1.54171 11.535353,4.62447 a 3.0013677,2.9999561 0 0 0 0.03126,0 l 2.094495,1.99977 a 3.0013677,2.9999561 0 0 0 4.126468,0 l 2.094495,-1.99977 a 3.0013677,2.9999561 0 0 0 0.03126,0 c 6.107941,-5.88378 15.737351,-6.13519 22.164134,-0.78116 -8.275973,2.45177 -14.348854,10.10881 -14.348854,19.15405 0,5.10898 1.949021,9.76938 5.126823,13.31098 l -17.131094,16.4981 -25.165202,-24.2472 a 3.0013677,2.9999561 0 0 0 -0.03126,0 l -2.063234,-1.9998 c -6.3969166,-6.16239 -6.397083,-15.77255 0,-21.93497 3.201513,-3.08196 7.351684,-4.62608 11.535354,-4.62447 z m 47.735731,8.99897 c 7.770294,0 14.004982,6.23176 14.004982,13.99839 0,7.76668 -6.234688,13.99838 -14.004982,13.99838 -7.770269,0 -14.004982,-6.2317 -14.004982,-13.99838 0,-7.76663 6.234713,-13.99839 14.004982,-13.99839 z m -0.03126,3.93704 a 3.0013677,2.9999561 0 0 0 -2.969807,3.06215 l 0,3.99955 -4.001423,0 a 3.0013677,2.9999561 0 0 0 -0.312611,0 3.0051452,3.0037319 0 1 0 0.312611,5.99933 l 4.001423,0 0,3.9995 a 3.0013677,2.9999561 0 1 0 6.002136,0 l 0,-3.9995 4.001423,0 a 3.0013677,2.9999561 0 1 0 0,-5.99933 l -4.001423,0 0,-3.99955 a 3.0013677,2.9999561 0 0 0 -3.032329,-3.06215 z" fill="#000000" fill-opacity="1" stroke="none" marker="none" visibility="visible" display="inline" overflow="visible"></path></g></svg>